<?xml version="1.0" standalone="no"?>
<!DOCTYPE svg PUBLIC "-//W3C//DTD SVG 20010904//EN"
 "http://www.w3.org/TR/2001/REC-SVG-20010904/DTD/svg10.dtd">
<svg version="1.0" xmlns="http://www.w3.org/2000/svg"
 width="960.000000pt" height="540.000000pt" viewBox="0 0 960.000000 540.000000"
 preserveAspectRatio="xMidYMid meet">

<g transform="translate(0.000000,540.000000) scale(0.100000,-0.100000)"
fill="#000000" stroke="none">
<path d="M0 2700 l0 -2700 4800 0 4800 0 0 2700 0 2700 -4800 0 -4800 0 0
-2700z m6730 2535 c0 -8 -6 -15 -14 -15 -17 0 -28 14 -19 24 12 12 33 6 33 -9z
m2638 -287 c-6 -18 -28 -21 -28 -4 0 9 7 16 16 16 9 0 14 -5 12 -12z m-8123
-278 c0 -29 -32 -41 -41 -16 -9 24 4 48 23 44 12 -2 18 -12 18 -28z m7591 -31
c8 -14 -11 -33 -25 -25 -11 7 -4 36 9 36 5 0 12 -5 16 -11z m-6878 -191 c3
-25 0 -28 -27 -28 -28 0 -31 3 -31 31 0 27 3 30 28 27 21 -2 28 -9 30 -30z
m572 -178 c0 -25 -4 -30 -25 -30 -21 0 -25 5 -25 30 0 25 4 30 25 30 21 0 25
-5 25 -30z m4510 -135 c0 -8 -7 -15 -15 -15 -8 0 -15 7 -15 15 0 8 7 15 15 15
8 0 15 -7 15 -15z m-6682 -222 c-5 -25 -28 -28 -28 -4 0 12 6 21 16 21 9 0 14
-7 12 -17z m-88 -753 c0 -5 -4 -10 -10 -10 -5 0 -10 5 -10 10 0 6 5 10 10 10
6 0 10 -4 10 -10z m3700 -370 c0 -25 -4 -30 -25 -30 -20 0 -25 5 -25 23 0 28
7 37 32 37 13 0 18 -8 18 -30z m-752 -612 c-2 -15 -10 -23 -23 -23 -13 0 -21
8 -23 23 -3 18 1 22 23 22 22 0 26 -4 23 -22z m-116 -28 c4 -28 3 -30 -29 -30
-28 0 -33 4 -33 23 0 29 7 37 36 37 17 0 23 -7 26 -30z m3233 -195 c0 -13 -8
-21 -22 -23 -19 -3 -23 1 -23 23 0 22 4 26 23 23 14 -2 22 -10 22 -23z m-2115
-236 c0 -5 -7 -9 -15 -9 -15 0 -20 12 -9 23 8 8 24 -1 24 -14z m2156 -420 c8
-14 -18 -31 -30 -19 -9 9 0 30 14 30 5 0 12 -5 16 -11z m2412 -111 c3 -25 0
-28 -27 -28 -28 0 -31 3 -31 31 0 27 3 30 28 27 21 -2 28 -9 30 -30z m-3710
-580 c-5 -34 -38 -37 -38 -4 0 20 5 26 21 26 15 0 20 -5 17 -22z m3442 -58 c0
-11 -7 -20 -15 -20 -8 0 -15 9 -15 20 0 11 7 20 15 20 8 0 15 -9 15 -20z m350
-35 c0 -8 -7 -15 -15 -15 -8 0 -15 7 -15 15 0 8 7 15 15 15 8 0 15 -7 15 -15z
m-4780 -25 c0 -13 -7 -20 -20 -20 -19 0 -27 20 -13 33 13 14 33 6 33 -13z
m-575 -50 c11 -18 -4 -45 -32 -57 -40 -19 -53 -16 -53 12 0 16 6 25 15 25 8 0
15 7 15 15 0 17 45 21 55 5z m4235 -211 c0 -14 -7 -19 -25 -19 -18 0 -25 5
-25 19 0 11 6 21 13 24 20 7 37 -4 37 -24z m220 -79 c0 -13 -7 -20 -20 -20
-13 0 -20 7 -20 20 0 13 7 20 20 20 13 0 20 -7 20 -20z m-90 -70 c0 -5 -4 -10
-10 -10 -5 0 -10 5 -10 10 0 6 5 10 10 10 6 0 10 -4 10 -10z m-1660 -25 c0
-18 -5 -25 -20 -25 -15 0 -20 7 -20 25 0 18 5 25 20 25 15 0 20 -7 20 -25z"/>
</g>
</svg>
