<svg width="38" height="38" viewBox="0 0 38 38" fill="none" xmlns="http://www.w3.org/2000/svg">
<circle cx="19" cy="19" r="19" fill="#6B6B6B"/>
<path d="M7.17518 7.97743C8.11436 7.89626 8.92594 7.33979 9.72131 6.87688C10.1656 6.61831 10.6102 6.36101 11.0568 6.1065C11.1903 6.03044 11.3814 5.87552 11.5417 5.84177C11.8132 5.78461 12.0937 5.79745 12.3686 5.72874C12.9284 5.58879 13.513 5.47499 14.0819 5.37776C14.3575 5.33063 15.1659 5.15286 15.3728 5.43725C15.4867 5.59395 15.5701 5.62413 15.578 5.84177C15.5948 6.30309 15.6738 6.89711 15.5453 7.34684C15.2141 8.50608 13.8103 9.20707 12.8534 9.7621C12.4164 10.0156 11.8994 10.1127 11.4346 10.3034C10.7921 10.5672 9.96124 10.9261 9.45658 11.4308C9.00369 11.8837 9.10455 12.7113 8.69215 13.1946C7.91021 14.111 6.45547 14.5195 5.29533 14.6105C4.60222 14.6648 4.5766 14.0076 4.49818 13.4504C4.45044 13.1112 4.37198 12.7476 4.3911 12.4034C4.41568 11.961 4.87904 11.4389 5.07819 11.053C5.31004 10.6038 5.7269 10.3952 5.9854 9.9941C6.29545 9.51299 6.65217 9.07308 6.96697 8.59611C7.08605 8.41568 7.24279 8.25459 7.3239 8.05179C7.35271 7.97977 7.19432 8.45012 7.16923 8.50093C6.94804 8.94891 6.48158 9.53826 6.49106 10.0595C6.49399 10.221 6.47973 10.3149 6.40183 10.4849C6.20728 10.9093 5.95103 11.2947 5.72663 11.7014C5.45213 12.199 5.04573 12.6632 5.20015 13.2809C5.31333 13.7336 6.20906 14.0185 6.61599 13.8044C7.22039 13.4863 8.24804 11.6319 7.94259 12.2428C7.87305 12.3819 7.25756 13.501 7.39529 13.5515C7.60197 13.6273 8.2027 12.9754 8.28168 12.9001C8.51461 12.6781 8.9144 12.3539 9.03719 12.0316C9.11086 11.8382 9.05395 11.5614 9.10263 11.3505C9.18763 10.9821 9.8366 10.4239 10.108 10.1845C10.3024 10.0129 10.6939 9.97498 10.9289 9.86323C11.326 9.67448 11.7324 9.5152 12.1395 9.34865C12.4617 9.21685 12.7754 9.11478 13.1092 9.01848C13.4437 8.92199 13.7514 8.71879 14.07 8.57827C14.3892 8.43744 14.863 8.24467 14.9385 7.86737C14.9898 7.61099 15.1162 7.37476 15.224 7.13863C15.3191 6.93048 15.2675 6.84137 15.2597 6.62108C15.2502 6.35052 14.588 6.19999 14.3734 6.02619C14.0669 5.7781 13.3565 6.16284 13.0467 6.25225C12.4579 6.42222 11.8652 6.77395 11.3275 7.06725C10.8494 7.32803 10.259 7.38566 9.80162 7.68296C9.10589 8.13518 8.35226 8.56654 7.71356 9.09879C6.96173 9.72532 6.44788 10.581 6.12818 11.5111C6.02968 11.7976 5.73439 12.1901 5.86048 12.5164C5.93337 12.7051 6.35056 12.8257 6.51783 12.8466C6.5895 12.8556 5.76469 12.8751 5.83073 13.0637C5.88762 13.2263 6.4713 13.3009 6.61599 13.3314C7.02709 13.4182 7.32198 13.2333 7.63622 12.9596C8.11201 12.5452 8.15938 11.9611 8.44825 11.4397C8.48926 11.3657 8.53327 11.2833 8.59399 11.2226C8.5957 11.2208 8.68458 11.1536 8.68025 11.1482C8.64563 11.1049 7.83462 11.7612 7.78494 11.7936C7.38933 12.0517 6.86306 12.2575 6.52675 12.5938C6.44885 12.6717 6.36124 12.7635 6.30069 12.8555C6.05612 13.2273 6.99466 12.2917 7.28821 11.9572C8.102 11.0301 8.78189 10.0159 9.44766 8.98279C9.49748 8.90548 9.71793 8.73334 9.6529 8.79838C9.4955 8.95577 9.1815 9.09392 9.00744 9.20885C8.61596 9.46735 8.23425 9.74116 7.85336 10.0149C7.56229 10.2241 7.1504 10.4584 7.00266 10.8032C6.96564 10.8895 6.89145 10.9511 6.85394 11.0411C6.8069 11.154 6.51651 11.8158 6.77958 11.4337C7.10398 10.9626 7.40408 10.4677 7.84741 10.0982C8.19773 9.80627 8.61349 9.28862 9.07883 9.20885C9.90412 9.06737 10.7136 8.34718 11.3424 7.83763C11.5616 7.65998 11.4049 7.70973 11.2264 7.70973C11.0346 7.70973 10.731 7.63178 10.6077 7.81681C10.2541 8.34715 9.94738 9.02347 9.78377 9.64014C9.7113 9.91333 9.81499 10.4318 10.0188 9.89297C10.1453 9.55833 10.1905 9.14268 10.3757 8.83407C10.4442 8.71983 10.764 8.78053 10.8754 8.78053C10.9077 8.78053 11.1575 8.76384 11.1669 8.81622C11.1884 8.93581 10.5828 9.34102 10.5661 9.3546C10.4859 9.41966 9.57364 10.0291 9.60828 10.2023C9.61885 10.2551 9.71846 10.2034 9.7689 10.1845C10.0303 10.0865 10.2758 9.92947 10.5125 9.78589C11.0313 9.47121 11.478 9.10636 11.9521 8.75078C12.188 8.57388 12.473 8.46206 12.7255 8.31057C12.9707 8.16343 13.3293 8.2409 13.6059 8.14995C13.8718 8.06253 14.1267 8.06008 14.3912 7.97743C14.6144 7.90769 14.6172 7.74871 14.647 7.51936C14.691 7.1806 14.4452 6.96795 14.1919 6.7817C13.748 6.45532 13.2029 6.69592 12.8147 6.97801C12.4938 7.21122 12.1835 7.45943 11.8629 7.69188C11.4579 7.98554 12.1405 7.91899 12.3478 7.91496C12.9859 7.90257 13.513 7.71029 13.9986 7.29033C14.1243 7.18162 14.2429 7.05839 14.3496 6.93042C14.4432 6.81809 14.0735 7.02749 13.9391 7.08509C12.9367 7.5147 11.9978 8.07332 11.0003 8.51878C9.94028 8.9922 8.71859 9.55639 7.99613 10.4998C7.59574 11.0226 7.2878 11.6089 6.91938 12.1536C6.77491 12.3671 6.64673 12.6929 6.44347 12.8555C6.24038 13.018 5.8644 13.2365 5.75934 13.4742C5.63676 13.7516 5.50582 13.8765 5.30128 14.081" stroke="white" stroke-linecap="round" stroke-linejoin="round"/>
<path d="M11.2442 30.732C11.928 31.8906 13.0529 32.7439 14.4061 32.9539C14.8211 33.0183 15.232 33.1279 15.6345 33.2483C16.0468 33.3717 16.4298 33.5712 16.8421 33.6945C17.2542 33.8177 17.6799 33.8763 18.1033 33.9444C18.9617 34.0823 19.8853 34.1839 20.7535 34.2091C22.8265 34.2692 24.8616 33.9451 26.8125 33.2483C27.2158 33.1043 27.6486 32.918 28.0053 32.6772C28.7264 32.1905 29.2648 31.3605 29.8792 30.7558C30.4167 30.2266 31.0921 29.2345 30.9589 28.4476C30.9037 28.1217 29.867 28.1125 29.5966 28.1858C29.0165 28.3431 28.4848 28.6341 27.8982 28.7807C27.3009 28.93 26.7539 29.4514 26.2355 29.7682C25.8011 30.0337 25.2496 30.1751 24.775 30.3542C24.2088 30.5679 23.5694 30.7477 22.9636 30.7796C22.6585 30.7956 22.3527 30.7791 22.0474 30.7885C21.7714 30.797 21.4969 30.8771 21.2205 30.8569C20.6237 30.8133 19.9773 30.6532 19.4121 30.4524C18.9173 30.2765 18.4067 30.1747 17.91 30.0092C17.3848 29.8341 16.9271 29.4308 16.3633 29.3905C15.3438 29.3177 14.5267 29.1 13.7011 29.8515C13.2595 30.2535 12.5546 30.3572 11.97 30.3572C11.8183 30.3572 11.39 30.2839 11.2978 30.4107C11.194 30.5535 11.9142 31.2299 12.0384 31.3417C12.1242 31.4189 12.3582 31.3744 12.4638 31.3744C12.5658 31.3744 12.6581 31.3862 12.7582 31.3953C12.7835 31.3976 12.5315 31.2387 12.4876 31.2138C12.3637 31.1437 11.9496 31.0532 12.092 31.0532C12.684 31.0532 13.1846 30.8833 13.7428 30.7171C13.875 30.6777 14.5584 30.0958 14.3258 30.0895C14.0625 30.0824 13.798 30.0895 13.5346 30.0895C12.9787 30.0895 12.5546 30.1695 12.0176 30.2769C11.8313 30.3141 11.6309 30.3572 11.4405 30.3572C11.2436 30.3572 11.8348 30.2976 12.0146 30.2174C12.2094 30.1305 12.3928 29.9937 12.6125 29.9824C12.8168 29.9719 12.9604 29.9268 13.1509 29.8426C13.4153 29.7258 13.7967 29.2864 14.07 29.2864C14.1743 29.2864 14.4936 29.1989 14.5578 29.2566C14.8204 29.493 14.9124 29.3718 14.9623 29.7563C15.0154 30.1652 15.1614 30.6141 14.8046 30.9312C14.6935 31.03 14.5366 31.0689 14.415 31.1543C14.1352 31.3508 13.8778 31.6099 13.6476 31.8623C13.5043 32.0193 13.7333 31.9646 13.7576 31.9664C13.7993 31.9694 14.2099 32.0014 14.2068 31.9931C14.1468 31.8302 13.7806 31.6966 13.6446 31.6243C13.4651 31.5288 13.4351 31.5072 13.6625 31.538C14.0141 31.5857 14.3966 31.5549 14.7362 31.6659C14.9911 31.7493 15.2143 31.9133 15.462 32.005C15.5981 32.0554 15.7603 32.0823 15.8844 32.1567C15.9832 32.216 16.1285 32.2595 16.2116 32.3382C16.2266 32.3524 15.4628 32.3917 15.4055 32.3917C15.1269 32.3917 14.3088 32.3058 14.5697 32.4036C14.8956 32.5258 15.2316 32.6316 15.5721 32.704C15.8298 32.7589 16.1306 32.7591 16.3722 32.8736C16.6341 32.9976 16.9714 33.0991 17.2496 33.1918C17.4969 33.2742 17.7865 33.3651 18.0438 33.4119C20.0832 33.7827 22.0685 34.1354 24.1474 33.8908C24.6433 33.8325 25.2017 33.6016 25.6703 33.4268C26.0861 33.2717 26.4935 33.0161 26.8958 32.823C27.2162 32.6692 27.4375 32.4218 27.7227 32.2132C28.1567 31.8958 28.6274 31.6169 29.0433 31.2733C29.3736 31.0005 29.6116 30.681 29.8286 30.3245C29.9492 30.1263 30.1577 29.4315 29.9476 29.2596C29.4763 28.874 28.8261 28.9016 28.264 29.0603C27.9006 29.1629 27.9644 29.1793 28.3384 29.1793C28.822 29.1793 29.2463 29.1969 29.7096 29.0544C29.8088 29.0239 30.3664 29.0187 30.1647 29.0187C29.7859 29.0187 29.4777 29.0716 29.1177 29.1852C28.709 29.3143 28.4049 29.6471 27.9904 29.7682C27.6878 29.8567 27.3685 29.8794 27.1099 30.0716C26.7105 30.3686 26.2588 30.613 25.8101 30.8301C25.5281 30.9666 25.2235 31.0246 24.9267 31.1186C24.5744 31.2303 24.227 31.418 23.8589 31.4696C23.3182 31.5455 22.7301 31.4815 22.1843 31.4815C21.7423 31.4815 21.3364 31.4543 20.8993 31.4042C19.8638 31.2854 18.7728 31.1539 17.7583 30.8926C17.1157 30.7271 16.4313 30.7097 15.7981 30.4881C15.6313 30.4297 15.5146 30.4107 15.3371 30.4107C15.3307 30.4107 15.1814 30.4107 15.2746 30.4107C15.5542 30.4107 15.8112 30.3421 16.0688 30.2323C16.2746 30.1445 16.6819 30.0091 16.8302 29.8218C16.9144 29.7155 16.5668 29.7513 16.4317 29.7415C16.079 29.7159 15.7261 29.7147 15.3728 29.7147C15.1199 29.7147 15.8854 29.7127 16.1283 29.7831C16.3889 29.8587 16.5941 30.0432 16.8362 30.1579C16.9827 30.2273 17.4616 30.2883 17.3002 30.3036C16.6876 30.362 16.0654 30.3134 15.4561 30.3929C15.1755 30.4295 14.8411 30.4449 14.5697 30.5297C14.5358 30.5403 14.8014 30.8886 14.8314 30.9461C15.0689 31.4013 15.709 31.2594 16.1283 31.19C16.3218 31.158 16.5744 31.0937 16.7708 31.0473C16.8637 31.0253 17.1207 31.034 17.0474 30.9729C16.9302 30.8752 16.4598 30.8854 16.3246 30.8628C15.9823 30.8058 15.622 30.7158 15.2716 30.732C15.0075 30.7441 15.0751 31.1835 15.1021 31.3506C15.19 31.8956 15.6223 32.0135 16.0985 32.1121C16.3887 32.1722 16.616 32.2541 16.7916 31.9753C16.9617 31.7051 17.3002 31.22 17.3002 30.8866C17.3002 30.214 16.8976 32.1736 16.622 32.7873C16.4569 33.155 17.1881 32.3549 17.2496 32.2816C17.3902 32.1143 17.5188 31.9388 17.6542 31.7671C17.6868 31.7257 18.2628 30.9424 18.1033 31.3982C17.8931 31.9987 17.6485 32.6403 17.5887 33.2781C17.5684 33.4945 17.7825 33.3574 17.8713 33.2781C18.1298 33.0471 18.169 32.6674 18.4394 32.4452C18.6641 32.2607 18.8095 31.9976 19.0254 31.8087C19.0614 31.7772 19.0611 32.2371 19.0611 32.2757C19.0611 32.442 18.9777 32.9382 19.073 33.0758C19.1893 33.2438 19.6679 32.1332 19.6917 32.0764C19.7296 31.9855 19.7956 31.6856 19.8761 31.6124C19.9063 31.5849 19.9019 31.6907 19.9058 31.7314C19.9288 31.9679 19.9345 32.2043 19.9742 32.4393C20.0781 33.0536 20.2978 32.5695 20.4353 32.243C20.539 31.9966 20.1627 32.8075 20.3044 33.0342C20.3181 33.0562 20.346 33.0438 20.3579 33.0282C20.5044 32.8374 20.5939 32.5559 20.6941 32.3441C20.721 32.2871 20.8828 31.9229 20.9647 31.8355C21.0584 31.7355 21.0795 32.0891 21.0956 32.2251C21.1249 32.4717 21.124 32.7959 21.2741 33.0104C21.3455 33.1124 21.6424 32.5347 21.6756 32.4928C21.9866 32.1007 21.8876 33.0541 21.9225 33.2067C21.9277 33.2295 22.1315 32.5674 22.1575 32.4155C22.1842 32.2599 22.1664 32.5591 22.1664 32.5612C22.1664 32.6932 22.0644 33.0233 22.1783 32.9568C22.2886 32.8925 22.3452 32.5767 22.3984 32.469C22.5395 32.1836 22.5615 32.8045 22.5709 32.8646C22.5745 32.887 22.6201 33.3565 22.7464 33.1948C22.9781 32.8983 23.0517 32.509 23.2253 32.1835C23.3408 31.967 23.2185 32.6783 23.2699 32.9182C23.2989 33.0535 23.3274 32.9392 23.3443 32.8765C23.3624 32.8091 23.3731 32.7399 23.3859 32.6713C23.4026 32.5818 23.3684 32.3468 23.4395 32.4036C23.5285 32.4748 23.4495 33.0188 23.4633 33.1413C23.4884 33.3646 23.6225 32.6064 23.6358 32.5375C23.6641 32.391 23.6688 32.4037 23.6983 32.5464C23.7531 32.8122 23.7845 33.0808 23.8559 33.3435C24.0033 33.8855 24.1513 32.8964 24.1771 32.7992C24.2102 32.675 24.3438 32.1505 24.3943 31.9842C24.4117 31.927 24.4567 31.7557 24.4567 31.9188C24.4567 32.1029 24.2622 32.7072 24.3854 32.8498C24.4577 32.9336 24.7493 32.3717 24.778 32.3352C24.8632 32.2268 24.9517 32.8652 25.004 32.939C25.1139 33.0939 25.3939 32.1276 25.3967 32.1181C25.4819 31.8256 25.593 31.0892 25.593 31.8295C25.593 32.1285 25.5618 32.4448 25.7655 32.0169C26.0057 31.5125 26.1085 31.7315 26.2027 32.1805C26.3371 32.8205 26.6355 31.8334 26.7024 31.6838C26.7935 31.4802 27.0431 30.8921 27.1605 30.6635C27.3739 30.2482 27.3405 30.6246 27.336 30.845C27.3352 30.8849 27.2978 32.2249 27.574 31.9396C27.8275 31.6775 27.8207 31.2215 28.0201 30.9223C28.05 30.8776 28.1034 31.3412 28.1094 31.3685C28.1409 31.5127 28.1674 31.4672 28.2105 31.3387C28.2995 31.0734 28.2955 30.6545 28.4693 30.4286C28.6863 30.1464 28.4555 31.1501 28.5496 31.4934C28.5663 31.5543 28.6557 31.4177 28.6864 31.3625C28.8528 31.0633 28.9772 30.74 29.1593 30.4494C29.328 30.1804 29.2904 30.4179 29.427 30.3215C29.4855 30.2802 29.6332 29.9085 29.5787 30.149C29.5177 30.4183 29.5981 29.8218 29.3943 29.8218" stroke="black" stroke-linecap="round" stroke-linejoin="round"/>
<path d="M13.5464 30.5178C13.4019 30.7779 13.4042 31.2196 13.2193 31.431C13.1039 31.5628 13.0372 31.5967 12.9694 31.7492C12.89 31.9279 13.4559 32.0705 13.5851 32.0705C14.3401 32.0705 15.1115 32.0025 15.8189 31.7195C16.3503 31.5069 16.9663 31.4581 17.4757 31.7492C17.8401 31.9574 18.1419 32.2434 18.49 32.475C18.9203 32.7612 19.3268 32.8283 19.7868 32.9925C20.1081 33.1073 20.4142 33.1019 20.7446 33.168C20.8317 33.1855 20.9842 33.1902 21.0569 33.2483C21.0761 33.2637 20.6954 33.4441 20.6494 33.4536C20.362 33.5131 19.5236 33.439 20.4412 33.4863C21.3115 33.5312 22.1997 33.5907 23.0677 33.4804C23.9938 33.3626 24.9091 33.005 25.7357 32.5821C25.9327 32.4813 26.0413 32.42 26.2533 32.3917C26.4314 32.3679 26.5187 32.0792 26.5983 31.9455C26.6131 31.9207 26.7379 31.7733 26.6697 31.7552C26.4225 31.6892 26.0981 31.7946 25.8517 31.8266C25.7946 31.834 25.1289 31.8734 25.1289 31.8563C25.1289 31.7287 25.3818 31.8201 25.5067 31.7938C25.765 31.7395 26.0187 31.6662 26.2771 31.6124C26.728 31.5185 27.1102 31.5142 27.455 31.196C27.7995 30.8779 27.9815 30.5355 28.4127 30.3453C28.6975 30.2196 28.9672 30.037 29.2634 29.9408C29.3527 29.9117 29.2868 29.9289 29.2337 29.9289" stroke="black" stroke-linecap="round" stroke-linejoin="round"/>
</svg>
